<svg width="47" height="44" viewBox="0 0 47 44" fill="none" xmlns="http://www.w3.org/2000/svg">
<g id="Frame 1" filter="url(#filter0_d_230_1455)">
<rect x="3" width="38" height="38" rx="7.22" fill="url(#paint0_linear_230_1455)"/>
<g id="SvgjsG1857">
<path id="Vector" d="M11.4191 12.2698C10.4922 12.7989 10.3598 12.0714 11.3198 11.5423C13.5378 10.3188 16.9475 8.56621 20.3571 7.40884C21.3172 4.20125 21.913 2.54785 22.0454 2.25024C22.2441 1.72116 22.9392 1.65502 22.6744 2.34945C22.542 2.68012 21.913 4.56499 21.1516 7.14429C22.873 6.61521 24.5613 6.28453 26.051 6.28453C30.7848 6.28453 33.4 7.27656 33.4 10.0543C33.4 13.2949 29.5931 16.0726 25.8524 17.9244C24.2303 18.7511 20.2247 20.7352 17.1461 22.2563L16.484 24.8356L26.4482 24.4057C27.4083 24.3727 27.64 25.1994 26.8455 25.2324C26.3158 25.2655 20.6551 25.497 16.2854 25.6293C15.3254 29.4651 14.564 32.6066 14.3985 33.4663C14.1005 34.8552 14.1005 34.9875 14.2992 34.8883C14.4978 34.7891 14.6302 34.9544 14.0012 35.6488C13.4054 36.3102 13.0743 35.9464 13.3723 34.756L15.6564 25.6623C13.5047 25.7285 11.6178 25.7946 11.3529 25.7615C10.4922 25.7285 9.86325 24.9679 11.0881 24.4388C11.7171 24.1743 13.9019 23.083 16.6495 21.6942L17.6426 17.5607C18.5695 13.7579 19.3971 10.7156 20.0592 8.36781C16.9475 9.45905 13.6702 11.0132 11.4191 12.2698ZM18.2716 17.5938L17.3778 21.2974L25.091 17.3623C30.2883 14.7499 32.8373 12.1375 32.8373 9.88893C32.8373 8.07019 30.1559 7.04509 26.051 7.04509C24.6606 7.04509 22.8068 7.47497 20.8537 8.10326C20.0261 10.914 19.0661 14.3531 18.2716 17.5938ZM15.855 24.8687L16.4178 22.587C15.0274 23.2814 13.8688 23.8105 13.3723 24.0089C11.684 24.7034 11.4853 24.9679 12.7433 24.9679C13.0743 24.9679 14.3654 24.9348 15.855 24.8687Z" fill="#14B88F"/>
</g>
</g>
<defs>
<filter id="filter0_d_230_1455" x="0.72" y="-2.28" width="45.6" height="45.6" filterUnits="userSpaceOnUse" color-interpolation-filters="sRGB">
<feFlood flood-opacity="0" result="BackgroundImageFix"/>
<feColorMatrix in="SourceAlpha" type="matrix" values="0 0 0 0 0 0 0 0 0 0 0 0 0 0 0 0 0 0 127 0" result="hardAlpha"/>
<feOffset dx="1.52" dy="1.52"/>
<feGaussianBlur stdDeviation="1.9"/>
<feComposite in2="hardAlpha" operator="out"/>
<feColorMatrix type="matrix" values="0 0 0 0 0 0 0 0 0 0 0 0 0 0 0 0 0 0 0.25 0"/>
<feBlend mode="normal" in2="BackgroundImageFix" result="effect1_dropShadow_230_1455"/>
<feBlend mode="normal" in="SourceGraphic" in2="effect1_dropShadow_230_1455" result="shape"/>
</filter>
<linearGradient id="paint0_linear_230_1455" x1="34.92" y1="14.44" x2="3" y2="38" gradientUnits="userSpaceOnUse">
<stop stop-color="#262626"/>
<stop offset="1" stop-color="#737373"/>
</linearGradient>
</defs>
</svg>
