<svg width="20" height="20" viewBox="0 0 20 20" fill="none" xmlns="http://www.w3.org/2000/svg">
<g id="copy-02" clip-path="url(#clip0_209_1466)">
<path id="Icon" d="M13.3334 6.66669V4.33335C13.3334 3.39993 13.3334 2.93322 13.1518 2.5767C12.992 2.2631 12.737 2.00813 12.4234 1.84834C12.0669 1.66669 11.6002 1.66669 10.6667 1.66669H4.33341C3.39999 1.66669 2.93328 1.66669 2.57676 1.84834C2.26316 2.00813 2.00819 2.2631 1.8484 2.5767C1.66675 2.93322 1.66675 3.39993 1.66675 4.33335V10.6667C1.66675 11.6001 1.66675 12.0668 1.8484 12.4233C2.00819 12.7369 2.26316 12.9919 2.57676 13.1517C2.93328 13.3334 3.39999 13.3334 4.33342 13.3334H6.66675M9.33341 18.3334H15.6667C16.6002 18.3334 17.0669 18.3334 17.4234 18.1517C17.737 17.9919 17.992 17.7369 18.1518 17.4233C18.3334 17.0668 18.3334 16.6001 18.3334 15.6667V9.33335C18.3334 8.39993 18.3334 7.93322 18.1518 7.5767C17.992 7.2631 17.737 7.00813 17.4234 6.84834C17.0669 6.66669 16.6002 6.66669 15.6667 6.66669H9.33341C8.39999 6.66669 7.93328 6.66669 7.57676 6.84834C7.26316 7.00813 7.00819 7.2631 6.8484 7.5767C6.66675 7.93322 6.66675 8.39993 6.66675 9.33335V15.6667C6.66675 16.6001 6.66675 17.0668 6.8484 17.4233C7.00819 17.7369 7.26316 17.9919 7.57676 18.1517C7.93328 18.3334 8.39999 18.3334 9.33341 18.3334Z" stroke="#0C6E56" stroke-width="1.66667" stroke-linecap="round" stroke-linejoin="round"/>
</g>
<defs>
<clipPath id="clip0_209_1466">
<rect width="20" height="20" fill="white"/>
</clipPath>
</defs>
</svg>
