<svg width="218" height="49" viewBox="0 0 218 49" fill="none" xmlns="http://www.w3.org/2000/svg">
<g id="Logo wrap">
<g id="Group">
<g id="SvgjsG1857">
<path id="Vector" d="M1.39938 15.9119C0.121242 16.6415 -0.061349 15.6383 1.26243 14.9087C4.32083 13.2216 9.02254 10.8049 13.7242 9.20896C15.048 4.78594 15.8697 2.50603 16.0523 2.09564C16.3262 1.36607 17.2848 1.27488 16.9196 2.23244C16.737 2.68842 15.8697 5.28752 14.8198 8.84418C17.1935 8.1146 19.5215 7.65862 21.5756 7.65862C28.1033 7.65862 31.7094 9.02657 31.7094 12.8568C31.7094 17.3254 26.4599 21.1557 21.3018 23.7092C19.065 24.8491 13.5417 27.585 9.29642 29.6826L8.38347 33.2392L22.1234 32.6464C23.4472 32.6008 23.7667 33.7408 22.6712 33.7864C21.9408 33.832 14.1351 34.1512 8.10958 34.3336C6.7858 39.623 5.7359 43.9548 5.50767 45.1403C5.09684 47.0555 5.09684 47.2379 5.37072 47.1011C5.64461 46.9643 5.8272 47.1923 4.95989 48.1498C4.13824 49.0618 3.68176 48.5602 4.09259 46.9187L7.24228 34.3792C4.27518 34.4704 1.67326 34.5616 1.30808 34.516C0.121242 34.4704 -0.746064 33.4216 0.9429 32.692C1.81021 32.3272 4.82295 30.8225 8.61171 28.9074L9.98114 23.2076C11.2593 17.9638 12.4005 13.7688 13.3134 10.5313C9.02254 12.0361 4.50342 14.1792 1.39938 15.9119ZM10.8484 23.2532L9.61595 28.3602L20.2519 22.934C27.4185 19.3318 30.9334 15.7295 30.9334 12.6288C30.9334 10.1209 27.236 8.70738 21.5756 8.70738C19.6584 8.70738 17.1022 9.30016 14.409 10.1665C13.2678 14.0424 11.944 18.7846 10.8484 23.2532ZM7.51616 33.2848L8.29217 30.1385C6.37497 31.0961 4.7773 31.8257 4.09259 32.0993C1.76456 33.0568 1.49067 33.4216 3.22528 33.4216C3.68176 33.4216 5.46202 33.376 7.51616 33.2848Z" fill="#0E8164"/>
</g>
<g id="SvgjsG1858">
<path id="Vector_2" d="M49.2747 31.7145L45.9054 25.8659H44.0827V31.7145H42.2507V18.7117H46.6327C49.3577 18.7117 50.6004 20.3761 50.6004 22.4176C50.6004 24.2292 49.5326 25.489 47.7466 25.7925L51.4198 31.7145L49.2747 31.7145ZM44.0824 20.2932V24.4681H46.3839C48.0778 24.4681 48.8418 23.6221 48.8418 22.3898C48.8418 21.176 48.0777 20.2932 46.3839 20.2932H44.0824ZM57.1388 31.7145V18.7117H58.9708V31.7145H57.1388ZM71.0054 18.7117C73.3897 18.7117 74.9271 20.514 74.9271 22.7395C74.9271 24.9925 73.3897 26.7305 71.0054 26.7305H67.8202V31.7146H65.9883V18.7118L71.0054 18.7117ZM70.7292 25.1488C72.2574 25.1488 73.1135 24.1649 73.1135 22.7119C73.1135 21.3141 72.2574 20.2842 70.7292 20.2842H67.8202V25.1488L70.7292 25.1488ZM87.8454 20.3577H82.6348V24.4039H87.2285V26.0407H82.6348V30.0594H87.8454V31.7146H80.7659V18.7118H87.8454V20.3577ZM95.8292 30.0593H100.276V31.7145H93.9974V18.7117H95.8294L95.8292 30.0593ZM105.811 31.7145V18.7117H107.643V31.7145H105.811ZM123.434 18.7117H125.256V31.7145H123.277L116.474 21.3968V31.7145H114.66V18.7117H116.621L123.433 28.9832L123.434 18.7117ZM139.344 20.3577H134.133V24.4039H138.727V26.0407H134.133V30.0594H139.344V31.7146H132.264V18.7118H139.344V20.3577Z" fill="#0E8164"/>
</g>
</g>
</g>
</svg>
